# marquise brilliant, 2:1 navette outline
# 217 vertices, 430 triangles (flat facets: no normals)
v 1.1000000 0.3392764 0.0000000
v 1.0496828 0.2384750 0.4347928
v 0.3201666 -0.7085601 0.1326174
v 0.4679296 0.3392764 0.4679296
v 0.3022434 0.2384750 0.7296802
v 0.0921881 -0.7085601 0.2225618
v 0.0000000 0.3392764 0.5500000
v -0.3022434 0.2384750 0.7296802
v -0.0921881 -0.7085601 0.2225618
v -0.4679296 0.3392764 0.4679296
v -1.0496828 0.2384750 0.4347928
v -0.3201666 -0.7085601 0.1326174
v -1.1000000 0.3392764 0.0000000
v -1.0496828 0.2384750 -0.4347928
v -0.3201666 -0.7085601 -0.1326174
v -0.4679296 0.3392764 -0.4679296
v -0.3022434 0.2384750 -0.7296802
v -0.0921881 -0.7085601 -0.2225618
v -0.0000000 0.3392764 -0.5500000
v 0.3022434 0.2384750 -0.7296802
v 0.0921881 -0.7085601 -0.2225618
v 0.4679296 0.3392764 -0.4679296
v 1.0496828 0.2384750 -0.4347928
v 0.3201666 -0.7085601 -0.1326174
v 2.0000000 0.0300000 0.0000000
v 2.0000000 -0.0300000 0.0000000
v 1.9002227 0.0300000 0.1245472
v 1.9002227 -0.0300000 0.1245472
v 1.7982542 0.0300000 0.2367447
v 1.7982542 -0.0300000 0.2367447
v 1.6954443 0.0300000 0.3372448
v 1.6954443 -0.0300000 0.3372448
v 1.5929115 0.0300000 0.4268194
v 1.5929115 -0.0300000 0.4268194
v 1.4915469 0.0300000 0.5063120
v 1.4915469 -0.0300000 0.5063120
v 1.3920288 0.0300000 0.5765972
v 1.3920288 -0.0300000 0.5765972
v 1.2948436 0.0300000 0.6385462
v 1.2948436 -0.0300000 0.6385462
v 1.2003120 0.0300000 0.6930005
v 1.2003120 -0.0300000 0.6930005
v 1.1086149 0.0300000 0.7407528
v 1.1086149 -0.0300000 0.7407528
v 1.0198199 0.0300000 0.7825353
v 1.0198199 -0.0300000 0.7825353
v 0.9339053 0.0300000 0.8190129
v 0.9339053 -0.0300000 0.8190129
v 0.8507811 0.0300000 0.8507811
v 0.8507811 -0.0300000 0.8507811
v 0.7703068 0.0300000 0.8783666
v 0.7703068 -0.0300000 0.8783666
v 0.6923060 0.0300000 0.9022307
v 0.6923060 -0.0300000 0.9022307
v 0.6165776 0.0300000 0.9227736
v 0.6165776 -0.0300000 0.9227736
v 0.5429049 0.0300000 0.9403390
v 0.5429049 -0.0300000 0.9403390
v 0.4710619 0.0300000 0.9552191
v 0.4710619 -0.0300000 0.9552191
v 0.4008178 0.0300000 0.9676598
v 0.4008178 -0.0300000 0.9676598
v 0.3319405 0.0300000 0.9778651
v 0.3319405 -0.0300000 0.9778651
v 0.2641981 0.0300000 0.9860007
v 0.2641981 -0.0300000 0.9860007
v 0.1973604 0.0300000 0.9921976
v 0.1973604 -0.0300000 0.9921976
v 0.1311990 0.0300000 0.9965550
v 0.1311990 -0.0300000 0.9965550
v 0.0654872 0.0300000 0.9991421
v 0.0654872 -0.0300000 0.9991421
v 0.0000000 0.0300000 1.0000000
v 0.0000000 -0.0300000 1.0000000
v -0.0654872 0.0300000 0.9991421
v -0.0654872 -0.0300000 0.9991421
v -0.1311990 0.0300000 0.9965550
v -0.1311990 -0.0300000 0.9965550
v -0.1973604 0.0300000 0.9921976
v -0.1973604 -0.0300000 0.9921976
v -0.2641981 0.0300000 0.9860007
v -0.2641981 -0.0300000 0.9860007
v -0.3319405 0.0300000 0.9778651
v -0.3319405 -0.0300000 0.9778651
v -0.4008178 0.0300000 0.9676598
v -0.4008178 -0.0300000 0.9676598
v -0.4710619 0.0300000 0.9552191
v -0.4710619 -0.0300000 0.9552191
v -0.5429049 0.0300000 0.9403390
v -0.5429049 -0.0300000 0.9403390
v -0.6165776 0.0300000 0.9227736
v -0.6165776 -0.0300000 0.9227736
v -0.6923060 0.0300000 0.9022307
v -0.6923060 -0.0300000 0.9022307
v -0.7703068 0.0300000 0.8783666
v -0.7703068 -0.0300000 0.8783666
v -0.8507811 0.0300000 0.8507811
v -0.8507811 -0.0300000 0.8507811
v -0.9339053 0.0300000 0.8190129
v -0.9339053 -0.0300000 0.8190129
v -1.0198199 0.0300000 0.7825353
v -1.0198199 -0.0300000 0.7825353
v -1.1086149 0.0300000 0.7407528
v -1.1086149 -0.0300000 0.7407528
v -1.2003120 0.0300000 0.6930005
v -1.2003120 -0.0300000 0.6930005
v -1.2948436 0.0300000 0.6385462
v -1.2948436 -0.0300000 0.6385462
v -1.3920288 0.0300000 0.5765972
v -1.3920288 -0.0300000 0.5765972
v -1.4915469 0.0300000 0.5063120
v -1.4915469 -0.0300000 0.5063120
v -1.5929115 0.0300000 0.4268194
v -1.5929115 -0.0300000 0.4268194
v -1.6954443 0.0300000 0.3372448
v -1.6954443 -0.0300000 0.3372448
v -1.7982542 0.0300000 0.2367447
v -1.7982542 -0.0300000 0.2367447
v -1.9002227 0.0300000 0.1245472
v -1.9002227 -0.0300000 0.1245472
v -2.0000000 0.0300000 0.0000000
v -2.0000000 -0.0300000 0.0000000
v -1.9002227 0.0300000 -0.1245472
v -1.9002227 -0.0300000 -0.1245472
v -1.7982542 0.0300000 -0.2367447
v -1.7982542 -0.0300000 -0.2367447
v -1.6954443 0.0300000 -0.3372448
v -1.6954443 -0.0300000 -0.3372448
v -1.5929115 0.0300000 -0.4268194
v -1.5929115 -0.0300000 -0.4268194
v -1.4915469 0.0300000 -0.5063120
v -1.4915469 -0.0300000 -0.5063120
v -1.3920288 0.0300000 -0.5765972
v -1.3920288 -0.0300000 -0.5765972
v -1.2948436 0.0300000 -0.6385462
v -1.2948436 -0.0300000 -0.6385462
v -1.2003120 0.0300000 -0.6930005
v -1.2003120 -0.0300000 -0.6930005
v -1.1086149 0.0300000 -0.7407528
v -1.1086149 -0.0300000 -0.7407528
v -1.0198199 0.0300000 -0.7825353
v -1.0198199 -0.0300000 -0.7825353
v -0.9339053 0.0300000 -0.8190129
v -0.9339053 -0.0300000 -0.8190129
v -0.8507811 0.0300000 -0.8507811
v -0.8507811 -0.0300000 -0.8507811
v -0.7703068 0.0300000 -0.8783666
v -0.7703068 -0.0300000 -0.8783666
v -0.6923060 0.0300000 -0.9022307
v -0.6923060 -0.0300000 -0.9022307
v -0.6165776 0.0300000 -0.9227736
v -0.6165776 -0.0300000 -0.9227736
v -0.5429049 0.0300000 -0.9403390
v -0.5429049 -0.0300000 -0.9403390
v -0.4710619 0.0300000 -0.9552191
v -0.4710619 -0.0300000 -0.9552191
v -0.4008178 0.0300000 -0.9676598
v -0.4008178 -0.0300000 -0.9676598
v -0.3319405 0.0300000 -0.9778651
v -0.3319405 -0.0300000 -0.9778651
v -0.2641981 0.0300000 -0.9860007
v -0.2641981 -0.0300000 -0.9860007
v -0.1973604 0.0300000 -0.9921976
v -0.1973604 -0.0300000 -0.9921976
v -0.1311990 0.0300000 -0.9965550
v -0.1311990 -0.0300000 -0.9965550
v -0.0654872 0.0300000 -0.9991421
v -0.0654872 -0.0300000 -0.9991421
v -0.0000000 0.0300000 -1.0000000
v -0.0000000 -0.0300000 -1.0000000
v 0.0654872 0.0300000 -0.9991421
v 0.0654872 -0.0300000 -0.9991421
v 0.1311990 0.0300000 -0.9965550
v 0.1311990 -0.0300000 -0.9965550
v 0.1973604 0.0300000 -0.9921976
v 0.1973604 -0.0300000 -0.9921976
v 0.2641981 0.0300000 -0.9860007
v 0.2641981 -0.0300000 -0.9860007
v 0.3319405 0.0300000 -0.9778651
v 0.3319405 -0.0300000 -0.9778651
v 0.4008178 0.0300000 -0.9676598
v 0.4008178 -0.0300000 -0.9676598
v 0.4710619 0.0300000 -0.9552191
v 0.4710619 -0.0300000 -0.9552191
v 0.5429049 0.0300000 -0.9403390
v 0.5429049 -0.0300000 -0.9403390
v 0.6165776 0.0300000 -0.9227736
v 0.6165776 -0.0300000 -0.9227736
v 0.6923060 0.0300000 -0.9022307
v 0.6923060 -0.0300000 -0.9022307
v 0.7703068 0.0300000 -0.8783666
v 0.7703068 -0.0300000 -0.8783666
v 0.8507811 0.0300000 -0.8507811
v 0.8507811 -0.0300000 -0.8507811
v 0.9339053 0.0300000 -0.8190129
v 0.9339053 -0.0300000 -0.8190129
v 1.0198199 0.0300000 -0.7825353
v 1.0198199 -0.0300000 -0.7825353
v 1.1086149 0.0300000 -0.7407528
v 1.1086149 -0.0300000 -0.7407528
v 1.2003120 0.0300000 -0.6930005
v 1.2003120 -0.0300000 -0.6930005
v 1.2948436 0.0300000 -0.6385462
v 1.2948436 -0.0300000 -0.6385462
v 1.3920288 0.0300000 -0.5765972
v 1.3920288 -0.0300000 -0.5765972
v 1.4915469 0.0300000 -0.5063120
v 1.4915469 -0.0300000 -0.5063120
v 1.5929115 0.0300000 -0.4268194
v 1.5929115 -0.0300000 -0.4268194
v 1.6954443 0.0300000 -0.3372448
v 1.6954443 -0.0300000 -0.3372448
v 1.7982542 0.0300000 -0.2367447
v 1.7982542 -0.0300000 -0.2367447
v 1.9002227 0.0300000 -0.1245472
v 1.9002227 -0.0300000 -0.1245472
v 0.0000000 -0.8916551 0.0000000
f 23 1 25
f 2 25 1
f 15 217 122
f 24 26 217
f 21 24 217
f 12 122 217
f 3 217 26
f 6 217 3
f 124 15 122
f 216 26 24
f 17 14 16
f 120 122 12
f 28 3 26
f 136 15 134
f 130 15 128
f 18 217 15
f 18 15 144
f 18 21 217
f 18 170 21
f 126 128 15
f 126 15 124
f 204 206 24
f 210 212 24
f 214 24 212
f 214 216 24
f 174 176 21
f 22 1 23
f 108 110 12
f 114 116 12
f 9 12 217
f 9 100 12
f 9 217 6
f 9 6 74
f 118 12 116
f 118 120 12
f 4 2 1
f 40 3 38
f 34 3 32
f 30 32 3
f 30 3 28
f 70 6 68
f 64 6 62
f 180 182 21
f 196 24 21
f 215 23 25
f 48 6 3
f 27 25 2
f 138 140 15
f 138 15 136
f 132 134 15
f 132 15 130
f 142 15 140
f 142 144 15
f 143 14 17
f 150 18 148
f 150 152 18
f 146 148 18
f 146 18 144
f 154 18 152
f 160 18 158
f 166 18 164
f 202 24 200
f 202 204 24
f 208 24 206
f 208 210 24
f 209 23 211
f 172 21 170
f 172 174 21
f 123 121 14
f 123 14 125
f 127 14 129
f 127 125 14
f 131 129 14
f 131 14 133
f 135 133 14
f 20 169 17
f 20 22 23
f 106 12 104
f 106 108 12
f 112 12 110
f 112 114 12
f 102 104 12
f 102 12 100
f 94 96 9
f 94 9 92
f 98 9 96
f 98 100 9
f 90 92 9
f 84 86 9
f 78 80 9
f 107 11 109
f 119 11 121
f 119 117 11
f 115 113 11
f 115 11 117
f 111 11 113
f 111 109 11
f 13 16 14
f 13 11 10
f 13 14 121
f 13 121 11
f 42 44 3
f 42 3 40
f 36 38 3
f 36 3 34
f 33 31 2
f 72 74 6
f 72 6 70
f 183 20 185
f 187 20 189
f 187 185 20
f 173 20 175
f 177 20 179
f 177 175 20
f 194 21 192
f 194 196 21
f 198 200 24
f 198 24 196
f 195 23 197
f 195 20 23
f 195 193 20
f 203 23 205
f 203 201 23
f 199 197 23
f 199 23 201
f 213 211 23
f 213 23 215
f 54 6 52
f 54 56 6
f 50 52 6
f 50 6 48
f 46 3 44
f 46 48 3
f 47 45 2
f 5 2 4
f 5 49 47
f 5 47 2
f 39 37 2
f 39 2 41
f 43 2 45
f 43 41 2
f 29 2 31
f 29 27 2
f 141 139 14
f 141 14 143
f 153 151 17
f 149 147 17
f 149 17 151
f 145 17 147
f 145 143 17
f 156 158 18
f 156 18 154
f 162 164 18
f 162 18 160
f 159 157 17
f 168 170 18
f 168 18 166
f 165 163 17
f 207 205 23
f 207 23 209
f 137 14 139
f 137 135 14
f 191 189 20
f 191 20 193
f 19 17 16
f 19 22 20
f 19 20 17
f 88 9 86
f 88 90 9
f 82 9 80
f 82 84 9
f 76 9 74
f 76 78 9
f 66 68 6
f 66 6 64
f 58 6 56
f 105 103 11
f 105 11 107
f 101 11 103
f 101 99 11
f 35 2 37
f 35 33 2
f 181 179 20
f 181 20 183
f 184 21 182
f 190 192 21
f 171 169 20
f 171 20 173
f 178 21 176
f 178 180 21
f 51 5 53
f 51 49 5
f 7 5 4
f 155 17 157
f 155 153 17
f 161 17 163
f 161 159 17
f 167 17 169
f 167 165 17
f 8 79 77
f 8 5 7
f 8 77 75
f 8 75 73
f 8 73 5
f 8 85 83
f 8 7 10
f 8 87 85
f 8 89 87
f 8 91 89
f 8 93 91
f 8 95 93
f 8 97 95
f 8 10 11
f 8 99 97
f 8 11 99
f 188 190 21
f 59 57 5
f 55 53 5
f 55 5 57
f 65 63 5
f 65 5 67
f 69 67 5
f 81 79 8
f 81 8 83
f 186 21 184
f 186 188 21
f 61 5 63
f 61 59 5
f 60 62 6
f 60 6 58
f 71 5 73
f 71 69 5
f 215 26 216
f 215 25 26
f 27 26 25
f 27 28 26
f 209 212 210
f 209 211 212
f 123 124 122
f 123 122 121
f 123 126 124
f 123 125 126
f 127 129 130
f 127 130 128
f 127 126 125
f 127 128 126
f 131 130 129
f 131 132 130
f 131 133 134
f 131 134 132
f 135 134 133
f 135 136 134
f 107 109 110
f 107 110 108
f 119 121 122
f 119 122 120
f 119 120 118
f 119 118 117
f 115 114 113
f 115 116 114
f 115 117 118
f 115 118 116
f 111 113 114
f 111 114 112
f 111 110 109
f 111 112 110
f 33 34 32
f 33 32 31
f 173 175 176
f 173 176 174
f 195 198 196
f 195 197 198
f 195 196 194
f 195 194 193
f 203 206 204
f 203 205 206
f 203 204 202
f 203 202 201
f 199 198 197
f 199 200 198
f 199 201 202
f 199 202 200
f 213 212 211
f 213 214 212
f 213 215 216
f 213 216 214
f 47 48 46
f 47 46 45
f 47 50 48
f 47 49 50
f 39 40 38
f 39 38 37
f 39 42 40
f 39 41 42
f 43 45 46
f 43 46 44
f 43 42 41
f 43 44 42
f 29 31 32
f 29 32 30
f 29 28 27
f 29 30 28
f 141 142 140
f 141 140 139
f 141 144 142
f 141 143 144
f 153 152 151
f 153 154 152
f 149 150 148
f 149 148 147
f 149 151 152
f 149 152 150
f 145 147 148
f 145 148 146
f 145 144 143
f 145 146 144
f 159 160 158
f 159 158 157
f 165 166 164
f 165 164 163
f 207 206 205
f 207 208 206
f 207 209 210
f 207 210 208
f 137 139 140
f 137 140 138
f 137 136 135
f 137 138 136
f 191 193 194
f 191 194 192
f 89 91 92
f 89 92 90
f 93 96 94
f 93 95 96
f 93 92 91
f 93 94 92
f 83 86 84
f 83 85 86
f 77 80 78
f 77 79 80
f 105 106 104
f 105 104 103
f 105 107 108
f 105 108 106
f 101 103 104
f 101 104 102
f 101 102 100
f 101 100 99
f 97 96 95
f 97 98 96
f 97 99 100
f 97 100 98
f 35 37 38
f 35 38 36
f 35 34 33
f 35 36 34
f 181 180 179
f 181 182 180
f 184 182 181
f 184 181 183
f 190 191 192
f 190 189 191
f 171 172 170
f 171 170 169
f 171 173 174
f 171 174 172
f 178 176 175
f 178 175 177
f 178 179 180
f 178 177 179
f 51 54 52
f 51 53 54
f 51 50 49
f 51 52 50
f 7 4 1
f 7 1 22
f 7 16 13
f 7 19 16
f 7 13 10
f 7 22 19
f 155 157 158
f 155 158 156
f 155 154 153
f 155 156 154
f 161 163 164
f 161 164 162
f 161 160 159
f 161 162 160
f 167 169 170
f 167 170 168
f 167 166 165
f 167 168 166
f 87 86 85
f 87 88 86
f 87 89 90
f 87 90 88
f 75 76 74
f 75 74 73
f 75 77 78
f 75 78 76
f 188 189 190
f 188 187 189
f 55 54 53
f 55 56 54
f 55 58 56
f 55 57 58
f 65 66 64
f 65 64 63
f 65 68 66
f 65 67 68
f 69 68 67
f 69 70 68
f 81 80 79
f 81 82 80
f 81 83 84
f 81 84 82
f 186 184 183
f 186 183 185
f 186 187 188
f 186 185 187
f 61 63 64
f 61 64 62
f 60 61 62
f 60 59 61
f 60 58 57
f 60 57 59
f 71 73 74
f 71 74 72
f 71 70 69
f 71 72 70
