# princess cut, square, two-tier crown, chevron pavilion
# 41 vertices, 78 triangles (flat facets: no normals)
v 0.7000000 0.2074172 0.7000000
v 0.8600000 0.1293800 0.8600000
v 0.7000000 0.2074172 -0.7000000
v 0.8600000 0.1293800 -0.8600000
v -0.7000000 0.2074172 -0.7000000
v -0.8600000 0.1293800 -0.8600000
v -0.7000000 0.2074172 0.7000000
v -0.8600000 0.1293800 0.8600000
v 1.0000000 0.0200000 1.0000000
v 1.0000000 -0.0200000 1.0000000
v 1.0000000 0.0200000 -1.0000000
v 1.0000000 -0.0200000 -1.0000000
v -1.0000000 0.0200000 -1.0000000
v -1.0000000 -0.0200000 -1.0000000
v -1.0000000 0.0200000 1.0000000
v -1.0000000 -0.0200000 1.0000000
v 0.7400000 -0.5089889 0.7400000
v 0.7400000 -0.5089889 -0.7400000
v -0.7400000 -0.5089889 -0.7400000
v -0.7400000 -0.5089889 0.7400000
v 0.7918000 -0.5089889 0.0000000
v -0.7918000 -0.5089889 0.0000000
v 0.0000000 -0.5089889 0.7918000
v 0.0000000 -0.5089889 -0.7918000
v 0.4600000 -0.8673725 0.4600000
v 0.4600000 -0.8673725 -0.4600000
v -0.4600000 -0.8673725 -0.4600000
v -0.4600000 -0.8673725 0.4600000
v 0.4922000 -0.8673725 0.0000000
v -0.4922000 -0.8673725 0.0000000
v 0.0000000 -0.8673725 0.4922000
v 0.0000000 -0.8673725 -0.4922000
v 0.1800000 -1.1284768 0.1800000
v 0.1800000 -1.1284768 -0.1800000
v -0.1800000 -1.1284768 -0.1800000
v -0.1800000 -1.1284768 0.1800000
v 0.1926000 -1.1284768 0.0000000
v -0.1926000 -1.1284768 0.0000000
v 0.0000000 -1.1284768 0.1926000
v 0.0000000 -1.1284768 -0.1926000
v 0.0000000 -1.2498883 0.0000000
f 19 14 24
f 19 22 14
f 18 24 12
f 18 12 21
f 35 40 41
f 35 41 38
f 17 21 10
f 17 10 23
f 34 37 41
f 34 41 40
f 33 41 37
f 33 39 41
f 20 23 16
f 20 16 22
f 36 38 41
f 36 41 39
f 12 14 13
f 12 13 11
f 12 24 14
f 10 12 11
f 10 11 9
f 10 21 12
f 16 10 9
f 16 9 15
f 16 23 10
f 16 15 13
f 16 13 14
f 16 14 22
f 4 9 11
f 4 2 9
f 4 3 1
f 4 1 2
f 19 32 27
f 19 24 32
f 19 30 22
f 19 27 30
f 18 32 24
f 18 26 32
f 18 21 29
f 18 29 26
f 35 27 32
f 35 32 40
f 35 30 27
f 35 38 30
f 17 29 21
f 17 25 29
f 17 23 31
f 17 31 25
f 34 26 29
f 34 29 37
f 34 32 26
f 34 40 32
f 33 29 25
f 33 37 29
f 33 25 31
f 33 31 39
f 20 31 23
f 20 28 31
f 20 22 30
f 20 30 28
f 36 30 38
f 36 28 30
f 36 39 31
f 36 31 28
f 7 1 3
f 7 3 5
f 6 11 13
f 6 4 11
f 6 3 4
f 6 5 3
f 8 15 9
f 8 9 2
f 8 2 1
f 8 1 7
f 8 13 15
f 8 6 13
f 8 7 5
f 8 5 6
