# round brilliant, 57 facets, table 57%, crown 34.5 deg, pavilion 40.75 deg
# 153 vertices, 302 triangles (flat facets: no normals)
v 0.5700000 0.3255308 0.0000000
v 0.7052025 0.2326087 0.2921044
v 0.2124923 -0.7085601 0.0880172
v 0.4030509 0.3255308 0.4030509
v 0.2921044 0.2326087 0.7052025
v 0.0880172 -0.7085601 0.2124923
v 0.0000000 0.3255308 0.5700000
v -0.2921044 0.2326087 0.7052025
v -0.0880172 -0.7085601 0.2124923
v -0.4030509 0.3255308 0.4030509
v -0.7052025 0.2326087 0.2921044
v -0.2124923 -0.7085601 0.0880172
v -0.5700000 0.3255308 0.0000000
v -0.7052025 0.2326087 -0.2921044
v -0.2124923 -0.7085601 -0.0880172
v -0.4030509 0.3255308 -0.4030509
v -0.2921044 0.2326087 -0.7052025
v -0.0880172 -0.7085601 -0.2124923
v -0.0000000 0.3255308 -0.5700000
v 0.2921044 0.2326087 -0.7052025
v 0.0880172 -0.7085601 -0.2124923
v 0.4030509 0.3255308 -0.4030509
v 0.7052025 0.2326087 -0.2921044
v 0.2124923 -0.7085601 -0.0880172
v 1.0000000 0.0300000 0.0000000
v 1.0000000 -0.0300000 0.0000000
v 0.9951847 0.0300000 0.0980171
v 0.9951847 -0.0300000 0.0980171
v 0.9807853 0.0300000 0.1950903
v 0.9807853 -0.0300000 0.1950903
v 0.9569403 0.0300000 0.2902847
v 0.9569403 -0.0300000 0.2902847
v 0.9238795 0.0300000 0.3826834
v 0.9238795 -0.0300000 0.3826834
v 0.8819213 0.0300000 0.4713967
v 0.8819213 -0.0300000 0.4713967
v 0.8314696 0.0300000 0.5555702
v 0.8314696 -0.0300000 0.5555702
v 0.7730105 0.0300000 0.6343933
v 0.7730105 -0.0300000 0.6343933
v 0.7071068 0.0300000 0.7071068
v 0.7071068 -0.0300000 0.7071068
v 0.6343933 0.0300000 0.7730105
v 0.6343933 -0.0300000 0.7730105
v 0.5555702 0.0300000 0.8314696
v 0.5555702 -0.0300000 0.8314696
v 0.4713967 0.0300000 0.8819213
v 0.4713967 -0.0300000 0.8819213
v 0.3826834 0.0300000 0.9238795
v 0.3826834 -0.0300000 0.9238795
v 0.2902847 0.0300000 0.9569403
v 0.2902847 -0.0300000 0.9569403
v 0.1950903 0.0300000 0.9807853
v 0.1950903 -0.0300000 0.9807853
v 0.0980171 0.0300000 0.9951847
v 0.0980171 -0.0300000 0.9951847
v 0.0000000 0.0300000 1.0000000
v 0.0000000 -0.0300000 1.0000000
v -0.0980171 0.0300000 0.9951847
v -0.0980171 -0.0300000 0.9951847
v -0.1950903 0.0300000 0.9807853
v -0.1950903 -0.0300000 0.9807853
v -0.2902847 0.0300000 0.9569403
v -0.2902847 -0.0300000 0.9569403
v -0.3826834 0.0300000 0.9238795
v -0.3826834 -0.0300000 0.9238795
v -0.4713967 0.0300000 0.8819213
v -0.4713967 -0.0300000 0.8819213
v -0.5555702 0.0300000 0.8314696
v -0.5555702 -0.0300000 0.8314696
v -0.6343933 0.0300000 0.7730105
v -0.6343933 -0.0300000 0.7730105
v -0.7071068 0.0300000 0.7071068
v -0.7071068 -0.0300000 0.7071068
v -0.7730105 0.0300000 0.6343933
v -0.7730105 -0.0300000 0.6343933
v -0.8314696 0.0300000 0.5555702
v -0.8314696 -0.0300000 0.5555702
v -0.8819213 0.0300000 0.4713967
v -0.8819213 -0.0300000 0.4713967
v -0.9238795 0.0300000 0.3826834
v -0.9238795 -0.0300000 0.3826834
v -0.9569403 0.0300000 0.2902847
v -0.9569403 -0.0300000 0.2902847
v -0.9807853 0.0300000 0.1950903
v -0.9807853 -0.0300000 0.1950903
v -0.9951847 0.0300000 0.0980171
v -0.9951847 -0.0300000 0.0980171
v -1.0000000 0.0300000 0.0000000
v -1.0000000 -0.0300000 0.0000000
v -0.9951847 0.0300000 -0.0980171
v -0.9951847 -0.0300000 -0.0980171
v -0.9807853 0.0300000 -0.1950903
v -0.9807853 -0.0300000 -0.1950903
v -0.9569403 0.0300000 -0.2902847
v -0.9569403 -0.0300000 -0.2902847
v -0.9238795 0.0300000 -0.3826834
v -0.9238795 -0.0300000 -0.3826834
v -0.8819213 0.0300000 -0.4713967
v -0.8819213 -0.0300000 -0.4713967
v -0.8314696 0.0300000 -0.5555702
v -0.8314696 -0.0300000 -0.5555702
v -0.7730105 0.0300000 -0.6343933
v -0.7730105 -0.0300000 -0.6343933
v -0.7071068 0.0300000 -0.7071068
v -0.7071068 -0.0300000 -0.7071068
v -0.6343933 0.0300000 -0.7730105
v -0.6343933 -0.0300000 -0.7730105
v -0.5555702 0.0300000 -0.8314696
v -0.5555702 -0.0300000 -0.8314696
v -0.4713967 0.0300000 -0.8819213
v -0.4713967 -0.0300000 -0.8819213
v -0.3826834 0.0300000 -0.9238795
v -0.3826834 -0.0300000 -0.9238795
v -0.2902847 0.0300000 -0.9569403
v -0.2902847 -0.0300000 -0.9569403
v -0.1950903 0.0300000 -0.9807853
v -0.1950903 -0.0300000 -0.9807853
v -0.0980171 0.0300000 -0.9951847
v -0.0980171 -0.0300000 -0.9951847
v -0.0000000 0.0300000 -1.0000000
v -0.0000000 -0.0300000 -1.0000000
v 0.0980171 0.0300000 -0.9951847
v 0.0980171 -0.0300000 -0.9951847
v 0.1950903 0.0300000 -0.9807853
v 0.1950903 -0.0300000 -0.9807853
v 0.2902847 0.0300000 -0.9569403
v 0.2902847 -0.0300000 -0.9569403
v 0.3826834 0.0300000 -0.9238795
v 0.3826834 -0.0300000 -0.9238795
v 0.4713967 0.0300000 -0.8819213
v 0.4713967 -0.0300000 -0.8819213
v 0.5555702 0.0300000 -0.8314696
v 0.5555702 -0.0300000 -0.8314696
v 0.6343933 0.0300000 -0.7730105
v 0.6343933 -0.0300000 -0.7730105
v 0.7071068 0.0300000 -0.7071068
v 0.7071068 -0.0300000 -0.7071068
v 0.7730105 0.0300000 -0.6343933
v 0.7730105 -0.0300000 -0.6343933
v 0.8314696 0.0300000 -0.5555702
v 0.8314696 -0.0300000 -0.5555702
v 0.8819213 0.0300000 -0.4713967
v 0.8819213 -0.0300000 -0.4713967
v 0.9238795 0.0300000 -0.3826834
v 0.9238795 -0.0300000 -0.3826834
v 0.9569403 0.0300000 -0.2902847
v 0.9569403 -0.0300000 -0.2902847
v 0.9807853 0.0300000 -0.1950903
v 0.9807853 -0.0300000 -0.1950903
v 0.9951847 0.0300000 -0.0980171
v 0.9951847 -0.0300000 -0.0980171
v 0.0000000 -0.8916551 0.0000000
f 123 121 20
f 55 5 57
f 15 100 102
f 24 140 142
f 24 138 140
f 12 76 78
f 12 74 76
f 3 38 40
f 3 40 42
f 126 128 21
f 54 6 52
f 98 15 96
f 98 100 15
f 92 15 90
f 104 106 15
f 104 15 102
f 146 148 24
f 152 26 24
f 22 20 19
f 22 1 23
f 80 12 78
f 86 12 84
f 36 38 3
f 28 3 26
f 124 21 122
f 124 126 21
f 136 138 21
f 125 123 20
f 125 20 127
f 130 21 128
f 130 132 21
f 119 17 121
f 56 58 6
f 56 6 54
f 46 48 6
f 53 5 55
f 53 51 5
f 50 52 6
f 50 6 48
f 94 96 15
f 94 15 92
f 144 24 142
f 144 146 24
f 151 23 25
f 150 24 148
f 150 152 24
f 18 118 120
f 18 116 118
f 18 120 122
f 18 114 116
f 18 112 114
f 88 90 12
f 88 12 86
f 4 2 1
f 4 7 5
f 34 3 32
f 34 36 3
f 30 32 3
f 30 3 28
f 9 60 62
f 9 62 64
f 9 58 60
f 9 64 66
f 9 66 68
f 9 72 74
f 134 21 132
f 134 136 21
f 129 20 131
f 129 127 20
f 110 112 18
f 105 17 107
f 44 6 42
f 44 46 6
f 49 47 5
f 49 5 51
f 137 135 20
f 70 9 68
f 70 72 9
f 35 2 37
f 45 5 47
f 45 43 5
f 41 5 43
f 27 25 2
f 27 2 29
f 133 131 20
f 133 20 135
f 108 18 106
f 108 110 18
f 111 17 113
f 117 17 119
f 147 145 23
f 11 75 73
f 11 77 75
f 11 10 13
f 11 89 87
f 85 11 87
f 8 65 63
f 8 7 10
f 8 67 65
f 8 73 71
f 59 57 8
f 33 2 35
f 39 2 41
f 39 37 2
f 109 107 17
f 109 17 111
f 115 113 17
f 115 17 117
f 149 23 151
f 149 147 23
f 139 137 23
f 139 23 141
f 143 23 145
f 143 141 23
f 69 8 71
f 69 67 8
f 61 8 63
f 61 59 8
f 31 29 2
f 31 2 33
f 14 91 89
f 14 103 101
f 14 105 103
f 82 84 12
f 82 12 80
f 83 11 85
f 83 81 11
f 79 77 11
f 79 11 81
f 16 19 17
f 16 14 13
f 99 14 101
f 99 97 14
f 93 91 14
f 95 14 97
f 95 93 14
f 24 21 138
f 24 153 21
f 12 90 15
f 12 15 153
f 3 153 24
f 3 24 26
f 3 6 153
f 3 42 6
f 2 23 1
f 2 25 23
f 17 19 20
f 17 20 121
f 92 89 91
f 92 90 89
f 124 121 123
f 124 122 121
f 125 124 123
f 125 126 124
f 125 127 128
f 125 128 126
f 119 121 122
f 119 122 120
f 56 55 57
f 56 57 58
f 53 55 56
f 53 56 54
f 53 52 51
f 53 54 52
f 151 26 152
f 151 25 26
f 18 21 153
f 18 122 21
f 18 153 15
f 18 15 106
f 88 89 90
f 88 87 89
f 9 153 6
f 9 6 58
f 9 12 153
f 9 74 12
f 129 132 130
f 129 131 132
f 129 128 127
f 129 130 128
f 49 50 48
f 49 48 47
f 49 51 52
f 49 52 50
f 137 22 23
f 137 20 22
f 137 136 135
f 137 138 136
f 73 72 71
f 73 74 72
f 73 76 74
f 73 75 76
f 77 76 75
f 77 78 76
f 63 65 66
f 63 66 64
f 35 37 38
f 35 38 36
f 45 47 48
f 45 48 46
f 45 46 44
f 45 44 43
f 41 43 44
f 41 44 42
f 41 2 4
f 41 4 5
f 27 26 25
f 27 28 26
f 27 30 28
f 27 29 30
f 133 132 131
f 133 134 132
f 133 135 136
f 133 136 134
f 108 105 107
f 108 106 105
f 103 105 106
f 103 106 104
f 111 113 114
f 111 114 112
f 117 119 120
f 117 120 118
f 147 146 145
f 147 148 146
f 67 66 65
f 67 68 66
f 85 87 88
f 85 88 86
f 8 5 7
f 8 57 5
f 8 11 73
f 8 10 11
f 59 58 57
f 59 60 58
f 33 35 36
f 33 36 34
f 39 38 37
f 39 40 38
f 39 41 42
f 39 42 40
f 101 103 104
f 101 104 102
f 109 108 107
f 109 110 108
f 109 111 112
f 109 112 110
f 115 114 113
f 115 116 114
f 115 117 118
f 115 118 116
f 149 151 152
f 149 152 150
f 149 148 147
f 149 150 148
f 139 138 137
f 139 140 138
f 139 142 140
f 139 141 142
f 143 145 146
f 143 146 144
f 143 142 141
f 143 144 142
f 69 71 72
f 69 72 70
f 69 68 67
f 69 70 68
f 61 63 64
f 61 64 62
f 61 60 59
f 61 62 60
f 31 30 29
f 31 32 30
f 31 33 34
f 31 34 32
f 14 11 13
f 14 89 11
f 83 85 86
f 83 86 84
f 83 84 82
f 83 82 81
f 79 78 77
f 79 80 78
f 79 81 82
f 79 82 80
f 16 4 1
f 16 1 22
f 16 22 19
f 16 10 7
f 16 13 10
f 16 7 4
f 16 105 14
f 16 17 105
f 99 101 102
f 99 102 100
f 99 100 98
f 99 98 97
f 93 92 91
f 93 94 92
f 95 97 98
f 95 98 96
f 95 94 93
f 95 96 94
